<?xml version="1.0" encoding="UTF-8" standalone="no" ?>
<!DOCTYPE svg PUBLIC "-//W3C//DTD SVG 1.1//EN" "http://www.w3.org/Graphics/SVG/1.1/DTD/svg11.dtd">
<svg xmlns="http://www.w3.org/2000/svg" xmlns:xlink="http://www.w3.org/1999/xlink" version="1.1" width="1080" height="1080" viewBox="0 0 1080 1080" xml:space="preserve">
<desc>Created with Fabric.js 5.2.4</desc>
<defs>
</defs>
<rect x="0" y="0" width="100%" height="100%" fill="transparent"></rect>
<g transform="matrix(1 0 0 1 540 540)" id="9de1f99b-b1d5-476a-9a6e-6598a1322814"  >
<rect style="stroke: none; stroke-width: 1; stroke-dasharray: none; stroke-linecap: butt; stroke-dashoffset: 0; stroke-linejoin: miter; stroke-miterlimit: 4; fill: rgb(255,255,255); fill-rule: nonzero; opacity: 1; visibility: hidden;" vector-effect="non-scaling-stroke"  x="-540" y="-540" rx="0" ry="0" width="1080" height="1080" />
</g>
<g transform="matrix(1 0 0 1 540 540)" id="0a49ccda-dca3-4dfa-ad5a-2d18b388f471"  >
</g>
<g transform="matrix(2.76 0 0 2.76 540 540)"  >
<g style="" vector-effect="non-scaling-stroke"   >
		<g transform="matrix(1 0 0 1 0 0)"  >
<path style="stroke: none; stroke-width: 1; stroke-dasharray: none; stroke-linecap: butt; stroke-dashoffset: 0; stroke-linejoin: miter; stroke-miterlimit: 4; fill: rgb(0,128,8); fill-rule: nonzero; opacity: 1;" vector-effect="non-scaling-stroke"  transform=" translate(39, -189)" d="M 0 0 C 0.77182617 0.17160645 1.54365234 0.34321289 2.33886719 0.52001953 C 33.5856654 7.62387309 62.92462947 21.70255684 87 43 C 87.51369141 43.45342773 88.02738281 43.90685547 88.55664062 44.37402344 C 120.16265263 72.43701274 140.84041465 108.8033673 150 150 C 150.16516113 150.71510742 150.33032227 151.43021484 150.50048828 152.16699219 C 155.71758716 175.78690829 155.4371839 204.45831985 150 228 C 149.82839355 228.77182617 149.65678711 229.54365234 149.47998047 230.33886719 C 142.37612691 261.5856654 128.29744316 290.92462947 107 315 C 106.54657227 315.51369141 106.09314453 316.02738281 105.62597656 316.55664062 C 77.56298726 348.16265263 41.1966327 368.84041465 0 378 C -0.71510742 378.16516113 -1.43021484 378.33032227 -2.16699219 378.50048828 C -25.78690829 383.71758716 -54.45831985 383.4371839 -78 378 C -78.77182617 377.82839355 -79.54365234 377.65678711 -80.33886719 377.47998047 C -111.5856654 370.37612691 -140.92462947 356.29744316 -165 335 C -165.51369141 334.54657227 -166.02738281 334.09314453 -166.55664062 333.62597656 C -198.16265263 305.56298726 -218.84041465 269.1966327 -228 228 C -228.16516113 227.28489258 -228.33032227 226.56978516 -228.50048828 225.83300781 C -233.71758716 202.21309171 -233.4371839 173.54168015 -228 150 C -227.82839355 149.22817383 -227.65678711 148.45634766 -227.47998047 147.66113281 C -220.37612691 116.4143346 -206.29744316 87.07537053 -185 63 C -184.54657227 62.48630859 -184.09314453 61.97261719 -183.62597656 61.44335938 C -155.56298726 29.83734737 -119.1966327 9.15958535 -78 0 C -77.28489258 -0.16516113 -76.56978516 -0.33032227 -75.83300781 -0.50048828 C -52.21309171 -5.71758716 -23.54168015 -5.4371839 0 0 Z" stroke-linecap="round" />
</g>
		<g transform="matrix(1 0 0 1 -1.27 -1.56)"  >
<path style="stroke: none; stroke-width: 1; stroke-dasharray: none; stroke-linecap: butt; stroke-dashoffset: 0; stroke-linejoin: miter; stroke-miterlimit: 4; fill: rgb(238,239,233); fill-rule: nonzero; opacity: 1;" vector-effect="non-scaling-stroke"  transform=" translate(40.09, -123.06)" d="M 0 0 C 1.4144109 1.18653359 2.81035682 2.39540787 4.1875 3.625 C 4.93515625 4.26824219 5.6828125 4.91148437 6.453125 5.57421875 C 16.53616902 14.85130517 24.53074006 28.76948384 25.1875 42.625 C 25.25036469 45.41837872 25.29672589 48.20643608 25.3125 51 C 25.31963013 52.07217773 25.31963013 52.07217773 25.3269043 53.16601562 C 25.31009767 58.37980466 25.31009767 58.37980466 24.1875 60.625 C 24.85136719 60.21507812 25.51523437 59.80515625 26.19921875 59.3828125 C 27.08222656 58.84398437 27.96523438 58.30515625 28.875 57.75 C 29.74511719 57.21632813 30.61523438 56.68265625 31.51171875 56.1328125 C 38.65965848 52.10492237 45.06187296 51.66803867 53.1875 52.625 C 61.20346181 55.15146769 67.22887641 59.12134036 71.1875 66.625 C 75.27225669 76.0942087 73.77254983 87.00326734 70.51171875 96.48828125 C 65.23015543 108.99888699 56.6295166 117.63265652 45.1875 124.625 C 46.15429688 124.78355469 47.12109375 124.94210937 48.1171875 125.10546875 C 58.1645547 126.86172112 69.38672957 129.30654351 76.1875 137.625 C 81.72836575 146.11503623 83.54614016 153.14056122 81.7421875 163.078125 C 77.58701222 179.3832432 67.21420381 192.74466784 53.1875 201.625 C 32.4120997 213.16875065 10.05328101 216.85772305 -13.4375 216.6875 C -15.22994141 216.68073242 -15.22994141 216.68073242 -17.05859375 216.67382812 C -19.97661647 216.66215603 -22.89453037 216.64578326 -25.8125 216.625 C -24.4274789 228.55724401 -22.92771267 240.35478191 -20.08300781 252.03857422 C -19.27260292 255.3820868 -18.8125 258.15382896 -18.8125 261.625 C -34.3225 261.625 -49.8325 261.625 -65.8125 261.625 C -65.2171691 252.09970553 -64.61514663 242.84621996 -63.3125 233.4375 C -63.18230469 232.45458984 -63.05210937 231.47167969 -62.91796875 230.45898438 C -62.33825826 226.14628968 -61.69805854 221.886988 -60.8125 217.625 C -61.53091064 217.58012451 -62.24932129 217.53524902 -62.98950195 217.48901367 C -125.61651926 213.4783673 -125.61651926 213.4783673 -147.8125 189.625 C -150.18742208 186.43622687 -152.07153024 183.19427915 -153.8125 179.625 C -154.18761719 178.88636719 -154.56273437 178.14773438 -154.94921875 177.38671875 C -162.36190861 161.87242734 -164.92891617 141.12098926 -160.1875 124.4375 C -156.40379972 114.12790552 -150.00867679 105.8198157 -140.43359375 100.23828125 C -134.09103963 97.33679181 -127.70697621 96.50822407 -120.8125 97.625 C -117.54837585 98.95927423 -114.68835085 100.59157011 -111.8125 102.625 C -112.06 101.366875 -112.3075 100.10875 -112.5625 98.8125 C -112.74039063 97.87792969 -112.91828125 96.94335938 -113.1015625 95.98046875 C -113.60349179 93.61147282 -114.19023054 91.25969154 -114.8359375 88.92578125 C -117.70349109 78.10751515 -118.24939941 67.44598053 -118.3125 56.3125 C -118.32267151 55.5918335 -118.33284302 54.87116699 -118.34332275 54.12866211 C -118.54943628 35.96380999 -113.92278877 19.1807118 -101.0078125 5.796875 C -100.28335938 5.08015625 -99.55890625 4.3634375 -98.8125 3.625 C -98.29429687 3.07328125 -97.77609375 2.5215625 -97.2421875 1.953125 C -72.35047019 -22.28697667 -26.47498985 -19.70763493 0 0 Z" stroke-linecap="round" />
</g>
		<g transform="matrix(1 0 0 1 -1 -11)"  >
<path style="stroke: none; stroke-width: 1; stroke-dasharray: none; stroke-linecap: butt; stroke-dashoffset: 0; stroke-linejoin: miter; stroke-miterlimit: 4; fill: rgb(1,128,9); fill-rule: nonzero; opacity: 1;" vector-effect="non-scaling-stroke"  transform=" translate(-43, -70)" d="M 0 0 C 28.05 0 56.1 0 85 0 C 85 14.52 85 29.04 85 44 C 67.51 44 50.02 44 32 44 C 32 49.61 32 55.22 32 61 C 43.55 61 55.1 61 67 61 C 67 66.61 67 72.22 67 78 C 55.45 78 43.9 78 32 78 C 32 83.61 32 89.22 32 95 C 49.82 95 67.64 95 86 95 C 86 109.85 86 124.7 86 140 C 57.62 140 29.24 140 0 140 C 0 93.8 0 47.6 0 0 Z" stroke-linecap="round" />
</g>
</g>
</g>
</svg>